<svg width="14" height="14" viewBox="0 0 14 14" fill="none" xmlns="http://www.w3.org/2000/svg">
<g id="h-icon/solid/heart">
<path id="Vector" d="M6.7929 12.1979L6.78909 12.1958L6.77588 12.1887C6.76462 12.1826 6.74853 12.1737 6.72792 12.1622C6.6867 12.1393 6.62739 12.1056 6.55256 12.0616C6.40296 11.9735 6.19102 11.8439 5.93749 11.6754C5.43127 11.3389 4.75488 10.8442 4.07668 10.212C2.73456 8.9609 1.3125 7.10214 1.3125 4.8125C1.3125 3.10447 2.7496 1.75 4.48438 1.75C5.50456 1.75 6.41802 2.21613 7 2.94676C7.58198 2.21613 8.49544 1.75 9.51562 1.75C11.2504 1.75 12.6875 3.10447 12.6875 4.8125C12.6875 7.10214 11.2654 8.9609 9.92332 10.212C9.24512 10.8442 8.56873 11.3389 8.06251 11.6754C7.80898 11.8439 7.59704 11.9735 7.44744 12.0616C7.37261 12.1056 7.3133 12.1393 7.27208 12.1622C7.25147 12.1737 7.23538 12.1826 7.22412 12.1887L7.21091 12.1958L7.2071 12.1979L7.20549 12.1987C7.07718 12.2669 6.92282 12.2669 6.79451 12.1987L6.7929 12.1979Z" fill="#DEF7EA" style="fill:#DEF7EA;fill:color(display-p3 0.8706 0.9686 0.9176);fill-opacity:1;"/>
</g>
</svg>
